<svg xmlns="http://www.w3.org/2000/svg" xmlns:xlink="http://www.w3.org/1999/xlink" viewBox="0 0 135.71 181.64"><defs><style>.cls-1{opacity:0.8;fill:url(#Degradado_sin_nombre_18);}.cls-2{fill:#00c9b5;}.cls-3{fill:url(#linear-gradient);}.cls-4{fill:url(#linear-gradient-2);}.cls-5{fill:url(#linear-gradient-3);}.cls-6{fill:url(#linear-gradient-4);}</style><radialGradient id="Degradado_sin_nombre_18" cx="48.05" cy="99.63" r="54.12" gradientTransform="translate(1.72 19.3) scale(1.29 0.81)" gradientUnits="userSpaceOnUse"><stop offset="0.35" stop-color="#00c9b5" stop-opacity="0.5"/><stop offset="1" stop-color="#fff"/></radialGradient><linearGradient id="linear-gradient" x1="64.87" y1="59.29" x2="104.69" y2="-5.97" gradientUnits="userSpaceOnUse"><stop offset="0.14" stop-color="#0193cc"/><stop offset="0.88" stop-color="#01d0cc"/></linearGradient><linearGradient id="linear-gradient-2" x1="82.32" y1="69.94" x2="122.14" y2="4.68" xlink:href="#linear-gradient"/><linearGradient id="linear-gradient-3" x1="17.35" y1="81.26" x2="96.44" y2="176.46" gradientUnits="userSpaceOnUse"><stop offset="0.1" stop-color="#662d91"/><stop offset="0.83" stop-color="#f0f"/></linearGradient><linearGradient id="linear-gradient-4" x1="101.53" y1="81.66" x2="141.35" y2="16.4" xlink:href="#linear-gradient"/></defs><g id="Capa_2" data-name="Capa 2"><g id="OBJECT"><ellipse class="cls-1" cx="63.88" cy="100.25" rx="70" ry="43.97" transform="translate(-43.2 48.63) rotate(-31.76)"/><path class="cls-2" d="M87.41,52.6,64.5,66.28a4.91,4.91,0,0,1-7.42-4.23v-20a4.94,4.94,0,0,1,2.41-4.23L82.41,24.17a4.91,4.91,0,0,1,7.41,4.23v20A4.92,4.92,0,0,1,87.41,52.6Z"/><path class="cls-2" d="M125.61,25.87,105.25,38a4.37,4.37,0,0,1-6.59-3.76V16.53a4.38,4.38,0,0,1,2.15-3.76L121.16.61a4.37,4.37,0,0,1,6.59,3.76V22.11A4.35,4.35,0,0,1,125.61,25.87Z"/><path class="cls-2" d="M98.28,124.57l-76.1-45h0l-1.05-.71a2.34,2.34,0,0,1-.57-.6A3,3,0,0,1,20.77,75l.14-.2s-3.55,2.41-3.58,6.45v51.51A9.62,9.62,0,0,0,22.06,141l66.42,39.24A9.63,9.63,0,0,0,103,172V132.87A9.63,9.63,0,0,0,98.28,124.57Z"/><path class="cls-2" d="M101.5,51.46l10.07-6v-5a10.36,10.36,0,0,0-.09-1.25l-6,3.57a4.55,4.55,0,0,1-6.86-3.92V31.41a9.08,9.08,0,0,0-1.62.75l-3.21,1.89V52.91a5.51,5.51,0,0,1-2.71,4.75L65.4,73a5.52,5.52,0,0,1-8.32-4.75V55.76l-29.17,17-.14.2a3,3,0,0,0-.21,3.31,2.34,2.34,0,0,0,.57.6l1.05.71,47.51,28.07,30.14-17.81A9.66,9.66,0,0,0,111,82.78l-3.61,2.16a5.79,5.79,0,0,1-8.74-5V56.45A5.78,5.78,0,0,1,101.5,51.46Z"/><path class="cls-2" d="M133,64.35,107.05,79.83A5.56,5.56,0,0,1,98.66,75V52.46a5.55,5.55,0,0,1,2.74-4.79l25.91-15.48a5.57,5.57,0,0,1,8.4,4.79V59.56A5.55,5.55,0,0,1,133,64.35Z"/><path class="cls-3" d="M87.41,52.6,64.5,66.28a4.91,4.91,0,0,1-7.42-4.23v-20a4.94,4.94,0,0,1,2.41-4.23L82.41,24.17a4.91,4.91,0,0,1,7.41,4.23v20A4.92,4.92,0,0,1,87.41,52.6Z"/><path class="cls-4" d="M125.61,25.87,105.25,38a4.37,4.37,0,0,1-6.59-3.76V16.53a4.38,4.38,0,0,1,2.15-3.76L121.16.61a4.37,4.37,0,0,1,6.59,3.76V22.11A4.35,4.35,0,0,1,125.61,25.87Z"/><path class="cls-5" d="M98.28,124.57l-76.1-45h0l-1.05-.71a2.34,2.34,0,0,1-.57-.6A3,3,0,0,1,20.77,75l.14-.2s-3.55,2.41-3.58,6.45v51.51A9.62,9.62,0,0,0,22.06,141l66.42,39.24A9.63,9.63,0,0,0,103,172V132.87A9.63,9.63,0,0,0,98.28,124.57Z"/><path class="cls-2" d="M101.5,51.46l10.07-6v-5a10.36,10.36,0,0,0-.09-1.25l-6,3.57a4.55,4.55,0,0,1-6.86-3.92V31.41a9.08,9.08,0,0,0-1.62.75l-3.21,1.89V52.91a5.51,5.51,0,0,1-2.71,4.75L65.4,73a5.52,5.52,0,0,1-8.32-4.75V55.76l-29.17,17-.14.2a3,3,0,0,0-.21,3.31,2.34,2.34,0,0,0,.57.6l1.05.71,47.51,28.07,30.14-17.81A9.66,9.66,0,0,0,111,82.78l-3.61,2.16a5.79,5.79,0,0,1-8.74-5V56.45A5.78,5.78,0,0,1,101.5,51.46Z"/><path class="cls-6" d="M133,64.35,107.05,79.83A5.56,5.56,0,0,1,98.66,75V52.46a5.55,5.55,0,0,1,2.74-4.79l25.91-15.48a5.57,5.57,0,0,1,8.4,4.79V59.56A5.55,5.55,0,0,1,133,64.35Z"/></g></g></svg>