<svg xmlns="http://www.w3.org/2000/svg" xmlns:xlink="http://www.w3.org/1999/xlink" viewBox="0 0 118.38 181.64"><defs><style>.cls-1{fill:url(#linear-gradient);}.cls-2{fill:url(#linear-gradient-2);}.cls-3{fill:url(#linear-gradient-3);}.cls-4{fill:#00c9b5;}.cls-5{fill:url(#linear-gradient-4);}</style><linearGradient id="linear-gradient" x1="47.54" y1="59.29" x2="87.36" y2="-5.97" gradientUnits="userSpaceOnUse"><stop offset="0.14" stop-color="#0193cc"/><stop offset="0.88" stop-color="#01d0cc"/></linearGradient><linearGradient id="linear-gradient-2" x1="65" y1="69.94" x2="104.81" y2="4.68" xlink:href="#linear-gradient"/><linearGradient id="linear-gradient-3" x1="0.02" y1="81.26" x2="79.11" y2="176.46" gradientUnits="userSpaceOnUse"><stop offset="0.1" stop-color="#662d91"/><stop offset="0.83" stop-color="#f0f"/></linearGradient><linearGradient id="linear-gradient-4" x1="84.21" y1="81.66" x2="124.02" y2="16.4" xlink:href="#linear-gradient"/></defs><g id="Capa_2" data-name="Capa 2"><g id="OBJECT"><path class="cls-1" d="M70.08,52.6,47.17,66.28a4.91,4.91,0,0,1-7.42-4.23v-20a4.93,4.93,0,0,1,2.42-4.23L65.08,24.17A4.91,4.91,0,0,1,72.5,28.4v20A4.93,4.93,0,0,1,70.08,52.6Z"/><path class="cls-2" d="M108.28,25.87,87.93,38a4.37,4.37,0,0,1-6.59-3.76V16.53a4.37,4.37,0,0,1,2.14-3.76L103.84.61a4.37,4.37,0,0,1,6.59,3.76V22.11A4.36,4.36,0,0,1,108.28,25.87Z"/><path class="cls-3" d="M81,124.57l-76.1-45h0l-1-.71a2.18,2.18,0,0,1-.57-.6A3,3,0,0,1,3.44,75l.14-.2S0,77.2,0,81.24v51.51A9.62,9.62,0,0,0,4.73,141l66.42,39.24A9.63,9.63,0,0,0,85.69,172V132.87A9.63,9.63,0,0,0,81,124.57Z"/><path class="cls-4" d="M84.17,51.46l10.07-6v-5a10.36,10.36,0,0,0-.08-1.25l-6,3.57a4.55,4.55,0,0,1-6.86-3.92V31.41a9.16,9.16,0,0,0-1.63.75l-3.21,1.89V52.91a5.51,5.51,0,0,1-2.71,4.75L48.07,73a5.52,5.52,0,0,1-8.32-4.75V55.76l-29.17,17-.14.2a3,3,0,0,0-.2,3.31,2.18,2.18,0,0,0,.57.6l1,.71,47.51,28.07L89.51,87.87a9.64,9.64,0,0,0,4.16-5.09l-3.61,2.16a5.79,5.79,0,0,1-8.73-5V56.45A5.8,5.8,0,0,1,84.17,51.46Z"/><path class="cls-5" d="M115.65,64.35,89.73,79.83A5.56,5.56,0,0,1,81.34,75V52.46a5.57,5.57,0,0,1,2.73-4.79L110,32.19A5.56,5.56,0,0,1,118.38,37V59.56A5.57,5.57,0,0,1,115.65,64.35Z"/></g></g></svg>