<?xml version="1.0" encoding="utf-8"?>
<!-- Generator: Adobe Illustrator 26.1.0, SVG Export Plug-In . SVG Version: 6.00 Build 0)  -->
<svg version="1.1" id="Capa_1" xmlns="http://www.w3.org/2000/svg" xmlns:xlink="http://www.w3.org/1999/xlink" x="0px" y="0px"
	 viewBox="0 0 400 100" style="enable-background:new 0 0 400 100;" xml:space="preserve">
<style type="text/css">
	.st0{fill:#D9AA7A;}
	.st1{fill:#C595B3;}
	.st2{fill:#9074F9;}
	.st3{fill:#839BFB;}
	.st4{fill:#AA82EB;}
	.st5{fill:#FCC03E;}
	.st6{fill:#FDD738;}
	.st7{fill:#B98DDC;}
	.st8{fill:#FEFEFE;}
	.st9{fill:#6D99D0;}
	.st10{fill:#7E6BD6;}
	.st11{fill:#80B6F7;}
	.st12{fill:#7EC7F3;}
	.st13{fill:#6EA7FE;}
	.st14{fill:#9F7BF1;}
</style>
<g>
	<path class="st0" d="M37.4,16.3c-0.3,0.4-0.3,1-0.1,1.6c0.1,0.3,0.1,0.5,0.1,0.6l-0.2-0.6c0,0,0,0,0,0l0,0c0,0,0,0,0-0.1
		c0-0.2-0.1-0.4-0.3-0.6c0,0-0.1-0.1-0.1-0.1c0-0.2-0.1-0.4-0.3-0.5c0,0,0-0.1,0-0.1c0,0,0-0.1,0-0.1c-0.2-0.3-0.4-0.7-0.6-1
		c-0.1-0.2-0.1-0.3-0.2-0.5c-0.1-0.1-0.2-0.2-0.2-0.3c-0.1-0.3-0.3-0.5-0.5-0.7c-0.2-0.2-0.3-0.4-0.5-0.6c-0.4-0.6-0.8-1.2-1.4-1.7
		c0.9-0.6,1.8-0.8,2.7-0.6c1.3,0.3,2.1,1.6,2.2,2.8c0,0.3,0,0.7-0.2,1.3C37.6,15.4,37.5,15.8,37.4,16.3z"/>
	<path class="st1" d="M33,11.3c0.5,0.5,1,1.1,1.4,1.7c0.1,0.2,0.3,0.4,0.5,0.6c0.2,0.2,0.3,0.4,0.5,0.7c0.1,0.1,0.1,0.2,0.2,0.3
		c0.1,0.1,0.1,0.3,0.2,0.5c0.2,0.3,0.4,0.7,0.6,1c0,0,0,0.1,0,0.1c0,0,0,0.1,0,0.1c0.1,0.1,0.2,0.3,0.3,0.5c0,0,0,0.1,0.1,0.1
		c0.2,0.1,0.3,0.3,0.3,0.6c0,0,0,0.1,0,0.1l0,0c0,0,0,0,0,0l0.2,0.6c0.3,0.9,0.7,1.7,1.2,2.6c0.1,0.3,0.2,0.5,0.3,0.8
		c0.1,0.3,0.2,0.5,0.2,0.8c0.2,0.8,0.1,1.5-0.3,2.3c-0.5,0.8-1.1,1.4-2,1.6c0.1-0.1,0.1-0.2,0.1-0.3c0-0.3-0.1-0.4-0.2-0.6
		c0-0.1-0.1-0.2-0.1-0.2c0-0.2-0.1-0.4-0.1-0.6c0-0.2-0.1-0.4-0.2-0.6c-0.2-0.5-0.4-1.1-0.6-1.7c-0.1-0.3-0.3-0.8-0.6-1.6
		c0,0,0-0.1,0-0.1c0,0,0-0.1,0-0.1c-0.6-1.4-1.3-2.9-2-4.4c-0.1-0.3-0.2-0.5-0.3-0.6c0,0,0-0.1,0-0.1c0-0.1,0-0.1-0.1-0.2
		c-0.3-0.6-0.6-1.2-0.8-1.7c-0.1-0.2-0.2-0.3-0.4-0.5c0,0-0.1-0.1-0.1-0.1l-0.2-0.3L33,11.3z"/>
	<path class="st2" d="M75.2,15.8l-0.1,0c-0.1,0-0.1,0,0,0.1c0,0,0,0.1,0,0.1c0,0,0,0.1,0,0.1c0,0.2,0,0.4,0,0.7c0,0.2,0,0.4,0,0.7
		c0,0.4,0.1,0.9,0.1,1.3c0,0,0,0,0,0c0,0,0,0,0,0c0,0,0.1,0,0.1,0.1c-0.1,0.7-0.1,1.3-0.1,1.8c0,0.2,0,0.4,0,0.6
		c-0.1,0.2-0.1,0.4,0,0.6c0,0.1,0,0.1,0,0.2c0,0.1,0,0.2,0,0.3c0,0,0,0.1,0,0.2c-0.1,0.2,0,0.4,0,0.6c0,0.2,0,0.4,0,0.5
		c0,0.2,0.1,0.3,0,0.5c0,0.2,0,0.5,0,0.7c0,0,0,0,0,0c0,0,0,0,0,0.1L75,28.3c0,0,0,0.1,0,0.1c0.1,0.1,0,0.3-0.1,0.5
		c-1.4,0.6-2.9,0.6-4.5,0.1c-0.4-0.1-0.7-0.3-1.1-0.4c-0.7-0.6-1.3-1.3-1.7-2.1c-0.1-0.1-0.2-0.2-0.3-0.1c-0.9,0.4-1.9,0.7-3,0.8
		c-0.4,0-0.8,0-1.4,0C62.5,27,62,27,61.6,26.9c-0.3,0-0.6-0.1-0.9-0.3c0.1-0.7,0.1-1.4,0.1-2.1c0-0.1,0-0.2,0-0.3c0-0.1,0-0.2,0-0.3
		c0-0.2,0-0.3,0-0.5c0-0.2,0-0.3,0-0.5c0-0.1,0-0.3,0-0.4c0,0,0-0.1,0-0.1c0-0.2,0-0.4,0-0.6c0-0.2,0-0.5,0-0.8c0,0,0,0,0,0
		c0,0,0,0,0,0c0,0,0,0,0,0c0-0.4,0-0.7,0-1.1c0-0.5,0-1,0-1.5c0-0.6,0-1.1,0-1.6c0-0.4,0-0.7,0-1.1c0-0.5,0-1.1,0-1.7
		c0-0.4,0-0.7,0-1.1c0-0.1,0-0.3,0.1-0.4c0,0,0-0.1,0-0.1l-0.1-0.2c1.9-0.9,3.7-1,5.5-0.3c1.9,0.8,3.3,2.1,4.2,4c0,0,0.1,0,0.1,0
		c0.4-0.2,0.9-0.4,1.4-0.5C72.9,15.2,74.1,15.4,75.2,15.8z"/>
	<path class="st3" d="M60.5,12.2l0.1,0.2c0,0,0,0.1,0,0.1c-0.1,0.1-0.1,0.3-0.1,0.4c0,0.4,0,0.7,0,1.1c0,0.6,0,1.1,0,1.7
		c0,0.4,0,0.7,0,1.1c0,0.5,0,1.1,0,1.6c0,0.5,0,1,0,1.5c0,0.4,0,0.7,0,1.1c0,0,0,0,0,0c0,0,0,0,0,0c0,0,0,0,0,0c0,0.3,0,0.5,0,0.8
		c0,0.2,0,0.4,0,0.6c0,0,0,0.1,0,0.1c0,0.1,0,0.3,0,0.4c0,0.2,0,0.3,0,0.5c0,0.2,0,0.3,0,0.5c0,0.1,0,0.2,0,0.3c0,0.1,0,0.2,0,0.3
		c0.1,0.7,0,1.4-0.1,2.1c-0.6-0.2-1-0.5-1.4-0.7c-1.1-0.7-1.9-1.5-2.5-2.7c-0.5-1.1-0.9-2.3-1-3.4c0-0.8,0.1-1.4,0.2-2
		c0.1-0.4,0.3-1,0.5-1.7c0,0,0.1,0,0.1-0.1C57.5,14.3,58.8,13,60.5,12.2z"/>
	<path class="st2" d="M27.8,13.3c-0.1,0-0.1,0-0.1,0c0,0-0.1,0.1-0.1,0.1c0,0.1,0.1,0.2,0.2,0.2c0,0,0,0,0,0c0,0,0,0,0,0
		c0,0,0,0.1,0,0.1c0.2,0.3,0.3,0.6,0.5,0.9c0.1,0.1,0.1,0.2,0.2,0.4c0.1,0.3,0.2,0.6,0.4,0.8c0.1,0.1,0.1,0.2,0.1,0.3
		c0,0.1,0.1,0.2,0.1,0.4c0.1,0.1,0.1,0.3,0.2,0.5c0,0.1,0.1,0.3,0.1,0.4c0.1,0.1,0.1,0.2,0.1,0.4c0.1,0.5,0.3,1,0.4,1.5
		c0.1,0.2,0.1,0.4,0.2,0.6c0.1,0.2,0.1,0.4,0.2,0.6c0.1,0.5,0.2,0.9,0.3,1.4c0.1,0.2,0.1,0.6,0.3,1c0.1,0.3,0.2,0.7,0.3,1
		c0,0.2,0.1,0.4,0.1,0.6c0.1,0.2,0.1,0.4,0.1,0.6c0,0,0,0.1,0,0.1c0,0.1,0,0.1,0,0.2c0,0,0,0.1,0,0.1c-0.1,0.2-0.1,0.4,0,0.6
		c0,0,0,0.1,0,0.1l0,0.1c0,0.1,0,0.1,0,0.1l0.2,0c-0.5,0.3-0.9,0.7-1.3,1c-0.5,0.4-0.9,0.6-1.2,0.8c-1.2,0.5-2.6,0.6-3.8,0
		c-0.8-0.4-1.1-1.1-1.1-2c0-0.6,0.1-1.1,0.2-1.7c0.1-0.4,0.3-0.8,0.4-1.2c0.2-0.8,0.2-1.5,0.1-2.3c-0.2-0.6-0.4-1.1-0.7-1.4
		c-0.4-0.5-0.8-0.9-1.2-1.3c-1.6-1.9-1.3-5.2,1.7-5.4C25.8,12.7,26.8,12.8,27.8,13.3z"/>
	<path class="st4" d="M31.2,12.8l0.2,0.3c0,0,0,0.1,0.1,0.1c0.2,0.1,0.3,0.3,0.4,0.5c0.2,0.5,0.5,1,0.8,1.7c0,0.1,0.1,0.1,0.1,0.2
		c0,0,0,0.1,0,0.1c0.1,0.2,0.2,0.4,0.3,0.6c0.7,1.6,1.4,3,2,4.4c0,0,0,0,0,0.1c0,0,0,0.1,0,0.1c0.3,0.7,0.5,1.2,0.6,1.6
		c0.2,0.6,0.4,1.1,0.6,1.7c0.1,0.2,0.1,0.4,0.2,0.6c0,0.2,0.1,0.4,0.1,0.6c0,0.1,0.1,0.2,0.1,0.2c0.1,0.2,0.3,0.3,0.2,0.6
		c0,0.1-0.1,0.2-0.1,0.3c-0.5,0.1-0.8,0.1-1,0.1c-0.3,0-0.6,0-0.8-0.1c-0.3,0-0.5-0.1-0.8-0.2c-1-0.3-1.7-0.5-2.6-0.1l-0.2,0
		c-0.1,0-0.1,0,0-0.1l0-0.1c0,0,0-0.1,0-0.1c-0.1-0.2-0.1-0.4,0-0.6c0,0,0-0.1,0-0.1c0-0.1,0-0.2,0-0.2c0,0,0-0.1,0-0.1
		c0-0.2-0.1-0.4-0.1-0.6c-0.1-0.2-0.1-0.4-0.1-0.6c-0.1-0.3-0.2-0.7-0.3-1c-0.1-0.4-0.2-0.7-0.3-1c-0.1-0.5-0.2-0.9-0.3-1.4
		c0-0.2-0.1-0.4-0.2-0.6c-0.1-0.2-0.1-0.4-0.2-0.6c-0.1-0.5-0.3-1-0.4-1.5c0-0.1-0.1-0.2-0.1-0.4c-0.1-0.1-0.1-0.3-0.1-0.4
		c0-0.2-0.1-0.3-0.2-0.5c-0.1-0.1-0.1-0.2-0.1-0.4c0-0.1-0.1-0.2-0.1-0.3c-0.2-0.3-0.3-0.5-0.4-0.8c0-0.1-0.1-0.2-0.2-0.4
		c-0.2-0.3-0.3-0.6-0.5-0.9c0,0,0-0.1,0-0.1c0,0,0,0,0,0c0,0,0,0,0,0c-0.1-0.1-0.1-0.1-0.2-0.2c0,0,0-0.1,0.1-0.1c0,0,0.1,0,0.1,0
		C29.1,13.6,30.2,13.5,31.2,12.8z"/>
	<path class="st5" d="M56.5,16.1c-0.3,0.7-0.5,1.2-0.5,1.7c-0.1,0.5-0.2,1.2-0.2,2c-5.1,2-9.6,5.4-13.5,9.1
		c-0.1,0.1-0.2,0.1-0.2,0.2c-0.1,0.1-0.2,0.1-0.2,0.2c-0.2,0-0.4,0-0.6,0c-3.5,0-7.1,0-10.6,0c-1.5,0-2.9,0.4-4,1.1
		c-0.1-0.3-0.4-0.5-0.8-0.7c-0.1,0-0.1-0.1-0.2-0.2c-0.1-0.1-0.2-0.2-0.3-0.2c-0.2-0.1-0.4-0.3-0.6-0.6c-0.4-0.5-0.6-0.9-0.6-1.3
		c0-0.3-0.1-0.5-0.1-0.8c0-0.3,0-0.5,0-0.8c0-0.1,0-0.1,0.1-0.1c0,0,0,0,0-0.1c0-0.4,0-0.7,0.2-1c0,0,0-0.1,0-0.1c0,0,0-0.1,0-0.1
		c0,0,0-0.1,0.1-0.1c0.1,0,0.1,0,0.1,0.1c-0.1,0.6-0.2,1.1-0.2,1.7c0,0.9,0.3,1.6,1.1,2c1.2,0.7,2.6,0.6,3.8,0
		c0.3-0.1,0.7-0.4,1.2-0.8c0.4-0.3,0.9-0.7,1.3-1c1-0.4,1.7-0.3,2.6,0.1c0.3,0.1,0.6,0.2,0.8,0.2c0.3,0,0.6,0,0.8,0.1
		c0.2,0,0.5,0,1-0.1c0.9-0.3,1.6-0.8,2-1.6c0.4-0.7,0.5-1.5,0.3-2.3c-0.1-0.2-0.1-0.5-0.2-0.8c-0.1-0.3-0.2-0.5-0.3-0.8
		c-0.4-0.8-0.8-1.7-1.2-2.6c0-0.1,0-0.3-0.1-0.6c-0.2-0.6-0.1-1.1,0.1-1.6c2.3-0.3,4.4-0.5,6.2-0.6C47.8,15.4,52.1,15.6,56.5,16.1z"
		/>
	<path class="st3" d="M75.2,15.8c1,0.4,1.9,1,2.6,1.9c2.3,2.8,2.1,6.7-0.3,9.3c0,0-0.1,0.1-0.2,0.1c0,0-0.1,0-0.1,0.1
		c-0.1,0.2-0.3,0.4-0.6,0.6c-0.6,0.4-1.1,0.8-1.7,1c0.1-0.2,0.2-0.4,0.1-0.5c0,0,0,0,0-0.1l0.2-3.5c0,0,0,0,0-0.1c0,0,0,0,0,0
		c0-0.3-0.1-0.5,0-0.7c0-0.1,0-0.3,0-0.5c0-0.2,0-0.3,0-0.5c0-0.2-0.1-0.4,0-0.6c0,0,0-0.1,0-0.2c0-0.1,0-0.2,0-0.3
		c0-0.1,0-0.1,0-0.2c0-0.2,0-0.4,0-0.6c0.1-0.2,0.1-0.4,0-0.6c-0.1-0.5,0-1.1,0.1-1.8c0,0,0-0.1-0.1-0.1c0,0,0,0,0,0c0,0,0,0,0,0
		c0-0.4,0-0.9-0.1-1.3c0-0.2,0-0.4,0-0.7c0-0.2,0-0.4,0-0.7c0,0,0-0.1,0-0.1c0,0,0,0,0-0.1c0-0.1,0-0.1,0-0.1L75.2,15.8z"/>
	<path class="st2" d="M55.8,19.8c0.1,1.2,0.4,2.3,1,3.4c0.6,1.2,1.4,2,2.5,2.7c-0.1,0.1-0.2,0.3-0.3,0.4c0,0,0,0,0,0.1c0,0,0,0,0,0
		c0,0,0,0,0,0.1c-0.1,0.1-0.1,0.3-0.2,0.4c-0.1,0.3-0.2,0.7-0.4,1c0,0,0,0.1,0,0.1c0,0.2,0,0.3,0,0.5c0,0,0,0,0,0c0,0,0,0,0,0.1
		c0,0.1,0,0.3,0,0.4c0,0,0,0,0,0c0,0,0,0,0,0c0,0,0,0,0,0c0,0,0,0,0,0c0,0,0,0,0,0l-0.4,0.2c-0.8,0-1.6,0-2.5,0
		c-0.4,0-0.6,0-0.8,0.1c-0.3,0.1-0.5,0.4-0.5,0.8c0,0.4,0,0.8,0,1.2c0,3.5,0,7,0,10.3c0,0.7-0.1,1.5-0.2,2.4
		c-0.2,1.2-0.6,2.1-1.3,3.1C50.2,51,48,54.3,46,57.3c0,0,0-0.1,0-0.1c0-0.1,0-0.1,0-0.1c0,0-0.1,0-0.1-0.1c0,0,0-0.1,0-0.1
		c0.1-0.2,0.1-0.4,0-0.6c0-0.1,0-0.2,0-0.3c0-0.1,0-0.1-0.1-0.1h-0.1c0,0-0.1,0-0.1-0.1c0-0.2-0.1-0.5,0-0.7c0-0.1,0-0.2,0-0.3
		c0-0.1,0-0.3,0-0.4c0-0.2,0-0.3-0.2-0.4c0,0,0,0,0-0.1c0,0,0-0.1,0-0.1c0,0-0.1-0.1-0.1,0c1.3-1.9,2.5-3.9,3.8-5.9
		c0.9-1.4,1.7-2.6,2.1-4.2c0.2-0.6,0-1.2,0.1-1.8c0-0.1,0-0.1-0.1-0.1c-0.1,0-0.1-0.1-0.1-0.1c0.1-0.7,0.1-1.6,0.1-2.7
		c0-3.1,0-6.3,0-9.4c0-0.1-0.1-0.3-0.3-0.3l-9-0.1c0.1-0.1,0.2-0.1,0.2-0.2c0.1-0.1,0.2-0.1,0.2-0.2C46.3,25.1,50.7,21.8,55.8,19.8z
		"/>
	<path class="st6" d="M24.9,20.8c0,0.8,0.1,1.6-0.1,2.3c-0.1,0.4-0.3,0.8-0.4,1.2c0-0.1,0-0.1-0.1-0.1c0,0-0.1,0.1-0.1,0.1
		c0,0,0,0.1,0,0.1c0,0,0,0.1,0,0.1c-0.1,0.3-0.2,0.7-0.2,1c0,0,0,0.1,0,0.1c-0.1,0-0.1,0.1-0.1,0.1c0,0.3,0,0.5,0,0.8
		c0,0.3,0,0.5,0.1,0.8c0.1,0.4,0.3,0.8,0.6,1.3c0.2,0.2,0.4,0.4,0.6,0.6c0.1,0.1,0.2,0.1,0.3,0.2c0.1,0.1,0.1,0.1,0.2,0.2
		c0.4,0.2,0.6,0.4,0.8,0.7c-1.2,0.8-2,1.8-2.6,3.1c-0.9,1.9-0.8,3.8-0.4,5.7c0,0-0.1,0-0.1,0.1c0,0-0.1,0-0.1,0.1
		c0,0.4-0.1,0.8,0,1.2c0.1,0.3,0.2,0.7,0.3,1c0,0.1,0.1,0.2,0.1,0.3c0,0.1,0.1,0.2,0.1,0.3c0,0.1-0.1,0.1-0.1,0.2l-2.4,2.1
		c-1.4,1.1-2.9,2.2-4.5,3.1c-1.3,0.8-2.8,1.5-4.3,2c-0.3,0.1-0.6,0.2-0.9,0.2c0.1-3.6,0.5-7.3,1.1-10.8c0.7-4.2,2.2-8.4,4.6-11.9
		c1.8-2.6,4.2-4.7,7.2-6.1C24.7,20.7,24.8,20.7,24.9,20.8z"/>
	<path class="st4" d="M59.3,25.9c0.3,0.3,0.8,0.5,1.4,0.7c0.3,0.2,0.6,0.3,0.9,0.3c0.5,0.1,0.9,0.1,1.3,0.2c0.5,0.1,1,0.1,1.4,0
		c1.1-0.1,2.1-0.4,3-0.8c0.1-0.1,0.3,0,0.3,0.1c0.5,0.8,1,1.5,1.7,2.1c-0.1,0.3-0.1,0.5,0,0.6c0.3,0.4,0.7,0.8,1.3,1.3
		c0.3,0.2,0.5,0.3,0.8,0.4c0.3,0.1,0.6,0.2,0.9,0.3c0,0,0,0,0,0.1l0,0c0,0,0,0,0,0c-0.1,0-0.2-0.1-0.3-0.1c-0.1,0-0.1,0,0,0.1
		c0,0,0,0.1,0,0.1c0,0,0,0.1,0,0c0,0,0,0,0,0c0,0,0,0,0,0.1c0,0.2,0,0.5,0,0.7c0,0.1,0,0.3,0.1,0.4c0.1,0.1,0.1,0.2,0.1,0.4
		c0,0,0,0.1,0,0.1c0,0.1,0,0.2,0,0.3c0,0,0,0.1,0,0.1c-0.2,0.3-0.2,0.6-0.2,0.9c0,0.2,0,0.4,0,0.6c0,0.1,0,0.2,0,0.3
		c0,0.1,0,0.2,0,0.3c0,0.2,0,0.3,0,0.5c0,0.5,0,0.9,0.1,1.2c0,0.2,0.1,0.3,0,0.4c0,0.2,0,0.4,0.1,0.5c0.1,0.2,0.1,0.3,0.1,0.5
		c0,0.2,0,0.4,0,0.6c0,0,0,0.1,0,0.1c0,0.1,0,0.1,0,0.2c0,0,0,0.1,0,0.1c0,0.1,0,0.1,0,0.2c0,0.3,0,0.5,0.1,0.8c0,0.1,0,0.2,0,0.3
		c0,0.1,0,0.2,0,0.3c0.1,0.6,0.1,1.1,0.1,1.7c0,0.2-0.1,0.3,0,0.5c0.1,0.2,0.1,0.4,0.1,0.6c0,0,0,0.1,0,0.1c-0.1,0.2-0.1,0.3,0,0.5
		c0,0,0,0.1,0,0.2c0,0.1,0,0.1,0,0.2c0,0,0,0.1,0,0.1l0.1,0.4c0,0,0,0,0,0c0,0,0,0,0.1,0c0,0,0,0,0,0c0,0,0,0,0,0c0,0,0,0,0,0
		c0,0,0,0,0,0c0,0,0.1,0,0.1,0.1c-0.4,0.2-0.8,0.4-1,0.8c-0.2,0.3-0.4,0.7-0.3,1.2c0,0.5,0.1,1,0.3,1.5c0.2,0.4,0.4,0.8,0.6,1.1
		c0.3,0.3,0.5,0.6,0.8,0.9c0.3,0.3,0.3,0.6,0.1,0.9c-0.2,0.3-0.4,0.6-0.7,0.9c-0.6,0.8-0.9,1.9-0.8,3c0.1,0.8,0.6,1.1,1.3,1.5
		c-0.4,0.1-0.7,0-1.1,0.3c-0.1,0.1-0.2,0.2-0.2,0.4c0,0.2,0,0.4,0.1,0.6c0.2,0.4,0.5,0.9,0.9,1.4c0.1,0.1,0.2,0.2,0.3,0.3
		c0.3,0.1,0.6,0.2,0.8,0.3c0.1,0,0.3,0.1,0.4,0.1c0,0,0,0,0,0c0,0,0,0,0,0c0,0-0.1,0.1,0,0.1c0.1,0.1,0.2,0.2,0.3,0.2
		c0.2,0.1,0.1,0.3,0.1,0.5c0,0.2,0.1,0.4,0.2,0.6c-0.8-0.2-2.5-0.5-2.7-1.3c-0.4-1.1-0.7-2.1-2-2.3c-0.8-0.2-1.7,0.7-2,1.4
		c-0.3,0.6-0.6,1.3-1.2,1.7l0-0.1c0,0,0,0,0-0.1c0,0,0,0,0.1,0c0,0,0,0,0,0c0,0,0,0,0,0c0,0,0-0.1,0-0.1c0.1,0,0.1-0.1,0.1-0.2
		c0,0,0-0.1,0-0.1c-0.1-0.1-0.2-0.1-0.1-0.3c0,0,0-0.1,0-0.1l-0.1-0.7c0,0,0-0.1,0-0.1c0-0.1,0-0.2,0-0.3c0,0,0-0.1,0-0.1
		c0-0.3,0-0.6,0-0.9c0-0.2,0.1-0.4,0.1-0.6c0-0.4,0-0.8,0-1.3c0-0.1,0-0.1,0-0.2c0-0.1,0-0.1,0-0.2c0,0,0-0.1,0-0.1c0,0,0-0.1,0-0.1
		c0,0,0-0.1,0-0.1c-0.1-0.5-0.1-1,0-1.5c0,0,0-0.1,0-0.1c0,0,0-0.1,0-0.1c0-0.3,0.1-0.6,0.1-0.9c0-0.2,0-0.3,0-0.4
		c0-0.1-0.1-0.3-0.1-0.4c0-0.1,0-0.2-0.1-0.2c0,0,0-0.1,0-0.1l0-0.6c0,0,0-0.1,0-0.1c0,0,0,0,0-0.1c0-0.3,0.1-0.5,0.2-0.8
		c0,0,0-0.1,0-0.1c0-0.1,0-0.1,0-0.1c0,0,0.1-0.1,0.1-0.1c0-0.1,0-0.2,0-0.2c0,0,0-0.1,0.1-0.1c0.1-0.1,0.2-0.2,0.2-0.4
		c1.1-1.6,1.8-3.4,2.2-5.3c0.1-0.7,0.2-1.1,0.2-1.4c0-0.3,0-0.7,0-1.3c0-0.2-0.1-0.2-0.2-0.2c0-0.5,0-1,0-1.3
		c-0.1-4.2-1.9-7.4-5.3-9.6c-1.3-0.8-2.7-1.3-4.4-1.3c-0.4,0-1.2,0-2.4,0l0.4-0.2c0,0,0,0,0,0c0,0,0,0,0,0c0,0-0.1,0,0,0
		c0,0,0,0,0,0c0,0,0,0,0,0c0-0.1,0-0.3,0-0.4c0,0,0,0,0-0.1c0,0,0,0,0,0c0-0.2,0-0.3,0-0.5c0,0,0-0.1,0-0.1c0.2-0.4,0.3-0.7,0.4-1
		c0-0.2,0.1-0.3,0.2-0.4c0,0,0-0.1,0-0.1c0,0,0,0,0,0c0,0,0,0,0-0.1C59.1,26.2,59.2,26,59.3,25.9z"/>
	<path class="st7" d="M77.4,27c0.6,1.2,1.1,2.3,1.5,3.2c1.7,3.9,2.6,8.1,3,12.3c-0.4,0-0.6-0.1-1,0.1c-0.3,0.1-0.6,0.2-0.8,0.4
		c-0.7,0.6-1.3,1.3-1.7,2.1c-0.4,0.7-1.1,0.7-1.8,0.6c-1.2-0.2-2.4-0.3-3.6,0.1c0,0-0.1-0.1-0.1-0.1c0,0,0,0,0,0c0,0,0,0,0,0
		c0,0,0,0,0,0c0,0,0,0,0,0c0,0,0,0-0.1,0c0,0,0,0,0,0l-0.1-0.4c0,0,0-0.1,0-0.1c0-0.1,0-0.1,0-0.2c0,0,0-0.1,0-0.2
		c-0.1-0.2-0.1-0.3,0-0.5c0,0,0-0.1,0-0.1c0-0.2-0.1-0.4-0.1-0.6c-0.1-0.2,0-0.3,0-0.5c0-0.6,0-1.2-0.1-1.7c0-0.1,0-0.2,0-0.3
		c0-0.1,0-0.2,0-0.3c-0.1-0.3-0.1-0.5-0.1-0.8c0-0.1,0-0.1,0-0.2c0,0,0-0.1,0-0.1c0-0.1,0-0.1,0-0.2c0,0,0-0.1,0-0.1
		c0-0.2,0-0.4,0-0.6c0-0.2,0-0.3-0.1-0.5c-0.1-0.2-0.1-0.4-0.1-0.5c0-0.1,0-0.3,0-0.4c-0.1-0.3-0.1-0.8-0.1-1.2c0-0.2,0-0.3,0-0.5
		c0-0.1,0-0.2,0-0.3c0-0.1,0-0.2,0-0.3c0-0.2,0-0.4,0-0.6c0-0.3,0.1-0.7,0.2-0.9c0,0,0-0.1,0-0.1c-0.1-0.1-0.1-0.2,0-0.3
		c0,0,0-0.1,0-0.1c0-0.1-0.1-0.3-0.1-0.4c-0.1-0.1-0.1-0.2-0.1-0.4c0-0.2,0-0.5,0-0.7c0,0,0-0.1,0-0.1c0,0,0,0,0,0c0,0-0.1,0,0,0
		c0,0,0-0.1,0-0.1c0-0.1,0-0.1,0-0.1c0.1,0,0.2,0.1,0.3,0.1c0,0,0,0,0,0l0,0c0,0,0,0,0-0.1c-0.3-0.1-0.6-0.2-0.9-0.3
		c-0.3-0.1-0.6-0.2-0.8-0.4c-0.6-0.5-1.1-0.9-1.3-1.3c-0.1-0.1-0.1-0.3,0-0.6c0.4,0.1,0.7,0.3,1.1,0.4c1.5,0.5,3,0.5,4.5-0.1
		c0.6-0.2,1.2-0.6,1.7-1c0.3-0.2,0.5-0.4,0.6-0.6c0,0,0.1-0.1,0.1-0.1C77.3,27.1,77.4,27.1,77.4,27z"/>
	<path class="st8" d="M41.8,29.2l9,0.1c0.1,0,0.3,0.1,0.3,0.3c0,3.1,0,6.2,0,9.4c0,1.1,0,1.9-0.1,2.7c-0.3,1.5-0.9,2.7-1.8,4
		c-3.7,5.9-7.5,11.8-11.3,17.7c-0.8,1.2-1.3,2.5-1.5,4c0,0.2,0,0.4,0,0.6c0,2.8,0,5.6,0,8.5c0,0.2,0,0.5-0.1,1c-0.3,0.6-0.8,1-1.3,1
		c-2.5,0.1-4.9-0.4-7.1-1.5c-2.7-1.4-4.3-4.2-4.9-7.2c-0.1-0.7-0.2-1.5-0.2-2.2c-0.1-2.4,0.4-4.7,1.5-6.8c0.3-0.5,0.6-1,0.9-1.5
		c1.8-2.7,3.5-5.2,4.9-7.5c1.1-1.7,2.2-3.4,3.3-5.1c0.5-0.6,1.1-2-0.2-2c-0.9,0-1.8,0-2.6,0c-2.1-0.1-4.1-0.8-5.5-2.4
		c-0.3-0.3-0.5-0.6-0.8-0.9c-0.4-0.6-0.7-1.3-0.8-2c-0.5-2-0.5-3.9,0.4-5.7c0.6-1.2,1.4-2.3,2.6-3.1c1.2-0.7,2.5-1.1,4-1.1
		c3.5,0,7.1,0,10.6,0C41.4,29.3,41.6,29.3,41.8,29.2z"/>
	<path class="st8" d="M57.9,29.3c1.2,0,2,0,2.4,0c1.6,0.1,3.1,0.5,4.4,1.3c3.4,2.2,5.2,5.4,5.3,9.6c0,0.3,0,0.7,0,1.3
		c-0.3,2.7-1.2,5.1-2.6,7.1c-1,1.4-1.9,2.7-2.8,4c-2.2,3.4-4.1,6.4-5.9,9c-0.3,0.4-0.5,0.8-0.8,1.1c-0.1,0.1-0.1,0.1-0.2,0.1
		c-4.3,0-8.6,0.1-12.9,0.1c-0.6,0-1-0.3-1.3-0.8c-0.2-0.4-0.2-0.8,0.1-1.2c1.1-1.6,1.9-2.8,2.4-3.6c2-3,4.2-6.3,6.7-10.1
		c0.6-1,1.1-2,1.3-3.1c0.1-0.9,0.2-1.7,0.2-2.4c0-3.4,0-6.8,0-10.3c0-0.4,0-0.8,0-1.2c0-0.4,0.2-0.6,0.5-0.8
		c0.1-0.1,0.4-0.1,0.8-0.1C56.3,29.3,57.1,29.3,57.9,29.3z"/>
	<path class="st5" d="M23.5,39.2c0.2,0.7,0.5,1.4,0.8,2l0,0.4c0,0,0,0.1-0.1,0.1l-0.4,0.4c0-0.1,0-0.2-0.1-0.3
		c0-0.1-0.1-0.2-0.1-0.3c-0.1-0.3-0.2-0.7-0.3-1c-0.1-0.4,0-0.8,0-1.2c0,0,0-0.1,0.1-0.1C23.5,39.2,23.5,39.2,23.5,39.2z"/>
	<path class="st9" d="M24.4,41.2c0.3,0.3,0.5,0.6,0.8,0.9c1.4,1.6,3.4,2.4,5.5,2.4c0.8,0,1.6,0,2.6,0c1.4,0,0.8,1.4,0.2,2
		c-0.4,0-0.9,0.1-1.3,0.1c-1.2,0.1-2.4,0-3.5-0.3c-2.1-0.6-3.6-1.9-4.6-3.8c-0.1-0.1-0.1-0.2-0.2-0.3c0,0,0,0,0,0c0,0,0,0,0,0
		c0,0,0-0.1,0.1-0.2l0.4-0.4c0,0,0.1-0.1,0.1-0.1L24.4,41.2z"/>
	<path class="st10" d="M70,41.5c0.1,0,0.2,0.1,0.2,0.2c0,0.6,0,1,0,1.3c0,0.3-0.1,0.8-0.2,1.4c-0.3,1.9-1.1,3.7-2.2,5.3
		c-0.6,0.9-1.2,1.9-1.8,2.8c-1.4,2-2.8,4.1-4.1,6.1c-0.2,0.3-0.5,0.7-0.8,1.2c-0.7,1-1.3,2.1-2.1,3.4l-0.9,1.5
		C58,64.9,57.8,65,57.7,65l-11.8,0c-0.7,0-1.1,0-1.4,0c-0.7-0.2-1.1-0.6-1.2-1.2c-0.1-0.5-0.1-1.1,0.2-1.7c0.3,0.5,0.7,0.8,1.3,0.8
		c4.3,0,8.6,0,12.9-0.1c0.1,0,0.2,0,0.2-0.1c0.3-0.4,0.6-0.7,0.8-1.1c1.7-2.6,3.7-5.6,5.9-9c0.8-1.3,1.8-2.6,2.8-4
		C68.8,46.5,69.7,44.2,70,41.5z"/>
	<path class="st10" d="M51,41.7C51,41.7,51,41.7,51,41.7c0.1,0.1,0.2,0.1,0.2,0.2c-0.1,0.6,0,1.2-0.1,1.8c-0.4,1.6-1.2,2.8-2.1,4.2
		c-1.3,2-2.5,3.9-3.8,5.9c-1,1.6-2.1,3.2-3.1,4.7c-0.4,0.6-0.8,1.2-1.2,1.8c-0.6,1-1.3,2-2.1,3.2c-0.9,1.4-1.5,2.5-1.9,3.2
		c-0.2,0.3-0.3,0.6-0.5,0.7c0.2-1.5,0.8-2.8,1.5-4c3.8-5.9,7.6-11.8,11.3-17.7C50.1,44.3,50.7,43.2,51,41.7z"/>
	<path class="st11" d="M33.4,46.6c-1.1,1.7-2.2,3.4-3.3,5.1c-1.5,2.3-3.1,4.8-4.9,7.5c-0.3,0.5-0.6,1-0.9,1.5
		c-1.1,2.1-1.7,4.4-1.5,6.8c0,0.7,0.1,1.5,0.2,2.2c0-0.1-0.1-0.1-0.1-0.1c0,0-0.1,0.1-0.1,0.1c0.1,0.7,0.2,1.4,0.3,2.1
		c0,0.2,0.1,0.3,0.1,0.4c0,0.3,0.1,0.6,0.2,0.8c0,0.2,0.1,0.3,0.2,0.5c0.3,0.7,0.5,1.2,0.7,1.5c1,1.9,2.4,3.3,4.3,4.3
		c0.5,0.2,0.9,0.4,1.4,0.6c0,0.1,0.1,0.1,0.2,0.1c0.1,0,0.1,0,0,0.1l-0.1,0.1c0,0-0.1,0.1,0,0.1c0.1,0.2,0.1,0.3,0.1,0.5
		c0,0.2,0,0.4,0.1,0.5c0.1,0.6,0.2,1.1,0.2,1.6c0,0.6,0.1,1.1,0.2,1.6c0,0,0,0.1,0.1,0l0.2-0.1c0,0,0.1,0,0.1,0
		c0.2,0.4,0.3,0.8,0.3,1.2c0,0.2,0,0.3,0.1,0.4c0.1,0.1,0.1,0.3,0.1,0.4c0,0,0,0.1,0,0.1c0,0.1,0,0.3,0,0.5
		c-2.7-0.7-5.2-1.8-7.5-3.3c0,0,0-0.1,0.1-0.1c0,0,0,0,0-0.1c0-0.1,0-0.1,0-0.2c0-0.1,0-0.1,0,0c0,0,0,0,0,0c0,0-0.1,0-0.1,0
		c0,0,0,0,0,0c0,0,0,0,0,0c0,0,0,0-0.1,0c0,0,0,0-0.1,0c0-0.1-0.1-0.1-0.2-0.2c0,0-0.1-0.1-0.1-0.1c0-0.2,0-0.3,0-0.5
		c-0.1-0.2-0.1-0.3-0.1-0.5c0,0,0-0.1,0-0.1c0.1,0,0.1-0.1,0.2-0.1c0,0,0,0,0-0.1c0,0,0,0,0,0c0,0,0,0,0.1,0c0.1,0,0.2,0,0.3-0.1
		c0,0,0,0,0,0H24c0,0-0.1,0-0.1-0.1c-0.1-0.6-0.2-1.1-0.3-1.6c0-0.1,0-0.2-0.1-0.3c0-0.1-0.1-0.2-0.1-0.3c0,0,0-0.1-0.1-0.1
		c-0.2,0-0.3-0.2-0.3-0.3c0-0.5-0.1-1,0-1.5c0,0,0-0.1-0.1-0.1c0,0-0.1,0-0.1,0c-0.1-0.1-0.1-0.3-0.2-0.4c-0.2-0.5-0.3-1.1-0.4-1.6
		c0-0.1,0-0.1,0-0.2c-0.1-0.2-0.2-0.5-0.3-0.7c-0.1-0.3,0-0.5,0-0.7c0-0.3-0.1-0.7-0.1-1c0-0.2,0-0.4-0.1-0.7c0-0.3,0-0.5-0.1-0.7
		c0,0,0-0.1,0-0.1c0,0,0,0,0-0.1c-0.1-0.2-0.1-0.4-0.1-0.7c-0.1-0.9-0.2-1.7-0.2-2.5c0,0,0,0,0,0c0,0,0,0,0,0c0,0,0,0,0,0
		c-0.1-0.2-0.1-0.4-0.1-0.7c0-0.4,0-0.8,0-1.2c0-0.1,0-0.3,0-0.4c0-0.2,0-0.3,0-0.5c0-0.1,0-0.2,0-0.3c0-0.1,0-0.2,0-0.3
		c0-0.3,0-0.6,0-0.8c0-0.1,0-0.3,0-0.4c0-0.1,0-0.3,0-0.4c0,0,0-0.1,0-0.1c0,0,0,0,0,0c0,0,0,0,0-0.1c0-0.3,0-0.6,0-0.9
		c-0.1-0.8-0.1-1.9-0.1-3.3c0-0.1,0-0.1,0-0.2c0-0.1-0.1-0.2-0.1-0.3c0-0.5,0-1,0-1.4c0-0.1,0-0.3,0-0.4c0-0.1-0.1-0.3-0.1-0.4
		c0-0.2,0-0.4,0-0.6c0-0.3-0.1-0.7-0.1-1c0-1.2,0-2.4,0-3.6c0-0.2,0.1-0.4,0-0.7c0-0.2,0-0.4,0-0.6c0-0.1,0-0.3,0-0.4
		c0-0.2,0-0.3,0-0.5c0,0,0-0.1,0-0.1c0-0.1-0.1-0.2,0-0.3c0,0,0-0.1,0.1-0.1c0,0,0,0,0,0c0-0.1,0-0.1-0.1-0.1c0,0-0.1,0-0.1-0.1
		c0,0,0,0,0-0.1c0-0.1,0-0.3,0.1-0.4c0-0.1,0-0.2,0-0.4c0,0,0-0.1,0-0.1c0.1-0.4,0.1-0.7,0.2-1.1c0,0,0,0,0,0c0,0,0,0,0,0
		c0,0,0,0,0,0c0.1-0.4,0.2-0.9,0.2-1.3c0,0,0,0,0,0c0,0,0,0,0,0c-0.1,0-0.1,0,0-0.1c0-0.1,0.1-0.2,0.1-0.3l2.4-2.1c0,0,0,0,0,0
		c0,0,0,0,0,0c0.1,0.1,0.2,0.2,0.2,0.3c0.9,1.9,2.5,3.2,4.6,3.8c1.1,0.3,2.2,0.4,3.5,0.3C32.5,46.7,32.9,46.7,33.4,46.6z"/>
	<path class="st12" d="M81.9,42.6c1.3,0.8,1.6,2.5,1.9,3.9c0.2,0.9,0.7,1.3,1.6,1.6c0.4,0.1,0.8,0.3,1.1,0.4c1.2,0.5,2.1,1.5,2,2.8
		c-0.1,1.8-1.6,2.2-3,2.7c-0.8,0.3-1.3,0.9-1.5,1.8c-0.1,0.7-0.3,1.4-0.5,2c-0.1,0.3-0.2,0.6-0.4,0.9c-0.3,0.5-0.7,0.8-1.3,0.8
		L81,59.4c0.1,0,0.1,0,0.2,0c0.1,0,0.1,0,0,0c0,0,0,0,0,0c0,0,0-0.1,0-0.1c0-0.3-0.1-0.5,0-0.7c0-0.5,0-1.1,0-1.7
		c0-0.2,0-0.3,0.1-0.5c0-0.2,0.1-0.4,0.1-0.6c0-0.7,0-1.4,0.1-2.1c0-0.1,0-0.2,0-0.3c0-0.1,0-0.3,0-0.4c0-0.2,0-0.4,0-0.5
		c0-0.2-0.1-0.4,0-0.7c0-0.2,0-0.4,0-0.6c-0.1-1.2-0.2-2-0.2-2.3c0-0.8,0-1.6-0.1-2.4c0-0.6-0.1-1.1-0.1-1.6c0,0,0-0.1,0-0.1
		c0,0,0-0.1,0-0.1c0-0.3,0-0.5-0.1-0.8c0-0.2,0-0.3,0.1-0.5c0-0.1,0-0.2,0-0.4c0,0,0,0,0,0c0,0,0,0,0,0c0,0-0.1,0-0.1-0.1
		c0-0.1,0-0.1,0.1-0.1C81.3,42.5,81.6,42.6,81.9,42.6z"/>
	<path class="st13" d="M80.9,42.7c-0.1,0-0.1,0.1-0.1,0.1c0,0,0,0.1,0.1,0.1c0,0,0,0,0,0c0,0,0,0,0,0c0.1,0.2,0.1,0.4,0,0.4
		c-0.1,0.2-0.1,0.3-0.1,0.5c0,0.3,0.1,0.5,0.1,0.8c0,0,0,0.1,0,0.1c0,0,0,0.1,0,0.1c0,0.4,0,0.9,0.1,1.6c0,0.8,0.1,1.6,0.1,2.4
		c0,0.4,0.1,1.1,0.2,2.3c0,0.2,0,0.4,0,0.6c0,0.2,0,0.5,0,0.7c0,0.2,0.1,0.4,0,0.5c0,0.1,0,0.3,0,0.4c0,0.1,0,0.2,0,0.3
		c0,0.7-0.1,1.4-0.1,2.1c0,0.2,0,0.4-0.1,0.6c0,0.2-0.1,0.3-0.1,0.5c0,0.6,0,1.1,0,1.7c0,0.2,0.1,0.5,0,0.7c0,0,0,0.1,0,0.1
		c0,0,0,0,0,0c0.1,0,0.1,0,0,0c-0.1,0-0.2,0-0.2,0c-0.8-0.3-1.4-0.6-1.8-1.1c-0.3-0.4-0.6-0.7-0.9-1c-0.5-0.5-1-0.6-1.6-0.2
		c-1.1,0.6-2.1,0.9-3.3,0.6c-0.7-0.4-1.2-0.8-1.3-1.5c-0.1-1,0.2-2.2,0.8-3c0.2-0.3,0.4-0.6,0.7-0.9c0.2-0.3,0.2-0.6-0.1-0.9
		c-0.3-0.3-0.6-0.6-0.8-0.9c-0.2-0.3-0.4-0.6-0.6-1.1c-0.2-0.4-0.3-0.9-0.3-1.5c0-0.4,0.1-0.8,0.3-1.2c0.2-0.3,0.6-0.6,1-0.8
		c1.1-0.4,2.3-0.3,3.6-0.1c0.7,0.1,1.3,0.1,1.8-0.6c0.5-0.8,1.1-1.4,1.7-2.1C80.3,42.9,80.6,42.7,80.9,42.7z"/>
	<path class="st12" d="M21.4,44.3c0,0.1,0,0.2-0.1,0.3c0,0.1,0,0.1,0,0.1c0,0,0,0,0,0c0,0,0,0,0,0c0,0.4-0.1,0.9-0.2,1.3
		c0,0,0,0,0,0c0,0,0,0,0,0c0,0,0,0,0,0c-0.1,0.4-0.1,0.7-0.2,1.1c0,0,0,0.1,0,0.1c0.1,0.1,0.1,0.3,0,0.4c0,0.1,0,0.2-0.1,0.4
		c0,0,0,0,0,0.1c0,0,0,0.1,0.1,0.1c0.1,0,0.1,0,0.1,0.1c0,0,0,0,0,0c0,0-0.1,0-0.1,0.1c0,0.1,0,0.2,0,0.3c0,0,0,0.1,0,0.1
		c0,0.2,0,0.3,0,0.5c0,0.2,0,0.3,0,0.4c0,0.2,0,0.4,0,0.6c0,0.2,0,0.4,0,0.7c0,1.1,0,2.3,0,3.6c0,0.3,0,0.7,0.1,1c0,0.2,0,0.4,0,0.6
		c0,0.1,0,0.3,0.1,0.4c0,0.1,0.1,0.3,0,0.4c0,0.5,0,0.9,0,1.4c0,0.1,0,0.2,0.1,0.3c0,0.1,0,0.1,0,0.2c0,1.4,0,2.5,0.1,3.3
		c0,0.3,0,0.6,0,0.9c0,0,0,0,0,0.1c0,0,0,0,0,0c0,0,0,0.1,0,0.1c0,0.1,0,0.3,0,0.4c0,0.2,0,0.3,0,0.4c0,0.3,0,0.6,0,0.8
		c0,0.1,0,0.2,0,0.3c0,0.1,0,0.2,0,0.3c0,0.2,0,0.3,0,0.5c0,0.1,0,0.3,0,0.4c0,0.4,0,0.8,0,1.2c0,0.2,0,0.5,0.1,0.7c0,0,0,0,0,0
		c0,0,0,0,0,0c0,0,0,0,0,0c0,0.8,0.1,1.6,0.2,2.5c0,0.3,0.1,0.5,0.1,0.7c0,0,0,0,0,0.1c0,0,0,0.1,0,0.1c0,0.2,0.1,0.5,0.1,0.7
		c0,0.2,0,0.4,0.1,0.7c0,0.3,0.1,0.6,0.1,1c0,0.3,0,0.5,0,0.7c0.1,0.3,0.2,0.5,0.3,0.7c0,0.1,0,0.1,0,0.2c0.1,0.5,0.3,1,0.4,1.6
		c0.1,0.2,0.1,0.3,0.2,0.4c0,0,0,0,0.1,0c0,0,0.1,0,0.1,0.1c0,0.5,0,1,0,1.5c0,0.2,0.1,0.3,0.3,0.3c0.1,0,0.1,0,0.1,0.1
		c0,0.1,0,0.2,0.1,0.3c0,0.1,0.1,0.2,0.1,0.3c0.1,0.5,0.2,1.1,0.3,1.6c0,0,0,0.1,0.1,0.1h0.1c0,0,0.1,0,0,0
		c-0.1,0.1-0.2,0.1-0.3,0.1c0,0,0,0-0.1,0c0,0,0,0,0,0c0,0,0,0,0,0.1c-0.1,0-0.1,0.1-0.2,0.1c0,0,0,0,0,0.1c0,0.2,0.1,0.3,0.1,0.5
		c0,0.2,0.1,0.3,0,0.5c0,0,0,0.1,0.1,0.1c0.1,0,0.1,0.1,0.2,0.2c0,0,0,0,0.1,0c0,0,0,0,0.1,0c0,0,0,0,0,0c0,0,0,0,0,0c0,0,0,0,0.1,0
		c0,0,0,0,0,0c0-0.1,0-0.1,0,0c0,0.1,0,0.1,0,0.2c0,0,0,0.1,0,0.1c0,0,0,0-0.1,0.1c-4.8-2.6-8.3-7.4-10-12.5
		c-1.1-3.1-1.7-6.3-2.1-9.4c-0.2-1.7-0.4-3.5-0.4-5.2c-0.1-2.4-0.1-4.9-0.1-7.3c0.3,0,0.6-0.1,0.9-0.2c1.5-0.5,3-1.2,4.3-2
		C18.4,46.5,19.9,45.5,21.4,44.3z"/>
	<path class="st14" d="M67.8,49.7c0,0.2,0,0.3-0.2,0.4c0,0-0.1,0.1-0.1,0.1c0,0.1,0,0.1,0,0.2c0,0,0,0.1-0.1,0.1c0,0-0.1,0.1,0,0.1
		c0,0,0,0.1,0,0.1c-0.1,0.3-0.1,0.5-0.2,0.8c0,0,0,0,0,0.1c0,0,0,0.1,0,0.1l0,0.6c0,0,0,0.1,0,0.1c0.1,0.1,0.1,0.1,0.1,0.2
		c0,0.1,0,0.3,0.1,0.4c0,0.1,0,0.3,0,0.4c0,0.3-0.1,0.6-0.1,0.9c0,0,0,0.1,0,0.1c0,0,0,0.1,0,0.1c-0.1,0.5-0.1,1,0,1.5
		c0,0,0,0.1,0,0.1c0,0,0,0.1,0,0.1c0,0,0,0.1,0,0.1c0,0.1,0,0.1,0,0.2c0,0.1,0,0.1,0,0.2c0,0.4,0,0.9,0,1.3c0,0.2-0.1,0.4-0.1,0.6
		c0,0.3,0,0.6,0,0.9c0,0,0,0.1,0,0.1c0.1,0.1,0.1,0.2,0,0.3c0,0,0,0.1,0,0.1l0.1,0.7c0,0,0,0.1,0,0.1c0,0.1,0,0.2,0.1,0.3
		c0,0,0.1,0.1,0,0.1c0,0.1-0.1,0.1-0.1,0.2c0,0,0,0.1,0,0.1c0,0,0,0,0,0c0,0,0,0,0,0c0,0,0,0-0.1,0c0,0,0,0,0,0.1l0,0.1
		c-1.3,0.8-3.1,0.2-3.9,1.9c-0.2,0.4-0.2,0.9,0.1,1.3c-0.2,0.7-0.2,1.3-0.1,1.7c0.1,0.5,0.4,1,1,1.4c0.2,0.2,0.5,0.3,0.7,0.4
		c0.2,0.1,0.3,0.2,0.3,0.4c0,0.1,0.1,0.3,0,0.4c0,0,0,0.1,0,0.1c0.1,0.1,0.1,0.2,0.1,0.4c0,0.3,0.1,0.5,0.1,0.7
		c0,0.6,0.1,1.2,0.2,1.7c0.2,0.6,0.5,0.7,1,0.9c0,0,0.1,0,0.1,0c0.1,0,0.2,0,0.3,0c0.1,0,0.3,0,0.4-0.1c0.1,0,0.2,0,0.2,0.1
		c0,0,0,0,0,0.1c0,0,0,0,0,0c0,0,0,0.1,0,0.1c0.1,0.3,0.2,0.5,0.3,0.8c0,0.1,0.1,0.3,0,0.5c0,0.4,0,0.8,0,1.2c0,0.3,0,0.6,0,0.9
		c0,0.2,0,0.4,0,0.6c0,0.2,0,0.4,0,0.6c0,0.1,0,0.2,0.1,0.3c0,0.1,0.1,0.2,0.1,0.3c0,0.6,0,1.2,0,1.7c0,0.2,0,0.3,0,0.5
		c0,0,0,0.1-0.1,0.1c0,0,0,0.1,0,0.1c0,0,0,0.1,0,0.1c0,0.1,0,0.2,0,0.3c0,0.1,0,0.1,0,0.2c0,0.7-0.1,1.5-0.2,2.2
		c0,0.2-0.1,0.5-0.1,0.7c0,0,0,0.1,0,0.1c0,0,0,0.1,0,0.1c0,0,0,0,0,0.1c0,0.2,0,0.3,0.1,0.4c-2.5,1.4-5.2,2.4-8.1,2.9
		c0.1-0.5,0.1-1,0.2-1.5c0-0.2,0-0.3,0-0.5c0-0.2,0-0.3,0-0.5c0,0,0-0.1,0-0.1c0-0.2,0-0.3,0-0.5c0,0,0-0.1,0-0.1
		C60,84.7,60,84.5,60,84.2c0,0,0-0.1,0-0.1c-0.1-0.1-0.1-0.2,0-0.3c0,0,0-0.1,0-0.1c0-0.2-0.1-0.3-0.1-0.5c-0.1-0.4,0-0.8,0-1.2
		c0,0,0-0.1-0.1-0.1c0,0,0,0,0,0c-0.1,0-0.1,0-0.1-0.1c0-0.1,0-0.3,0-0.4c0-0.1,0-0.2-0.1-0.2c0-0.1-0.1-0.2-0.1-0.3
		c0-0.1,0-0.2,0-0.4c-0.1-0.4-0.1-0.9-0.2-1.4c0-0.5-0.1-0.9-0.2-1.4c0-0.1,0-0.2-0.1-0.2c0-0.1,0-0.3,0.1-0.4c0,0,0-0.1,0-0.1
		c0-0.1,0-0.1,0-0.2c0,0,0,0,0-0.1c0,0,0,0,0,0c0,0,0,0,0-0.1c0,0,0-0.1,0-0.1c0.1-0.2,0.1-0.5,0-0.7c0-0.3,0-0.6,0-1
		c0-0.2,0-0.4,0-0.7c0-0.2,0-0.3,0-0.5c0-0.2,0-0.4,0-0.7c0-0.1,0-0.2,0-0.3c0,0,0-0.1,0-0.1c0-0.4,0-0.8,0-1.1
		c0-0.1-0.1-0.2-0.1-0.3c-0.1-0.1-0.1-0.2,0-0.3c0.1-0.1,0.1-0.1,0.1-0.2c0,0,0-0.1-0.1-0.1c0,0,0,0,0,0c0,0,0,0,0,0
		c-0.1,0-0.1-0.1-0.1-0.1c0-0.1,0-0.1,0-0.2c0-0.1,0-0.1,0.1-0.1c0,0,0,0,0,0c0,0,0.1,0,0.1-0.1l0-0.2c0-0.1,0-0.1-0.1,0
		c0,0,0,0.1,0,0.1c0,0,0,0.1,0,0.1c0,0,0,0,0,0c0,0,0,0,0-0.1c0-0.3,0-0.6,0-0.8c0,0,0,0,0,0c0,0,0,0,0,0c0,0,0,0,0,0c0,0,0,0,0,0
		c0,0,0,0,0,0c0-0.3,0.1-0.7,0.1-1c0-0.2,0-0.3,0-0.5c0-0.2,0-0.4,0-0.6c0,0,0,0,0-0.1c0,0,0,0,0-0.1c0,0,0-0.1-0.1-0.1
		c0-0.5,0-0.9,0-1.3c0-0.3,0-0.6-0.2-0.8c0,0-0.1-0.1-0.1-0.2c0-0.1-0.1-0.2-0.1-0.3c0,0,0-0.1,0-0.1c0-0.2,0.1-0.3,0.3-0.5
		c0,0,0,0,0,0c0,0,0,0,0,0c0,0,0,0,0-0.1c0.1-0.1,0.2-0.3,0.2-0.4c0.7-1.3,1.4-2.4,2.1-3.4c0.4-0.5,0.6-0.9,0.8-1.2
		c1.3-2.1,2.7-4.1,4.1-6.1C66.6,51.6,67.2,50.7,67.8,49.7z"/>
	<path class="st3" d="M45.1,53.8c0,0,0.1,0,0.1,0c0,0,0,0.1,0,0.1c0,0,0,0.1,0,0.1c0.1,0.1,0.2,0.2,0.2,0.4c0,0.1,0,0.2,0,0.4
		c0,0.1,0,0.2,0,0.3c0,0.2,0,0.5,0,0.7c0,0,0,0.1,0.1,0.1h0.1c0.1,0,0.1,0,0.1,0.1c0,0.1,0,0.2,0,0.3c0.1,0.2,0.1,0.4,0,0.6
		c0,0,0,0.1,0,0.1c0,0,0,0.1,0.1,0.1c0.1,0,0.1,0.1,0,0.1c0,0,0,0.1,0,0.1c-0.5,0.8-1.3,2-2.4,3.6c-0.3,0.4-0.3,0.8-0.1,1.2
		c-0.3,0.6-0.3,1.2-0.2,1.7c0.1,0.6,0.6,1,1.2,1.2c0.2,0.1,0.7,0.1,1.4,0c0.1,0.1,0.1,0.1,0.2,0.2c0.1,0.1,0,0.1,0,0.1c0,0,0,0,0,0
		c0,0,0,0.1,0.1,0.1l0.7,0c-2.8-0.1-4.9,1-6.2,3.4c-0.7,1.3-0.9,2.8-0.7,4.4c0,0,0,0-0.1-0.1c0,0-0.1,0-0.1,0c0,0,0,0,0,0
		c0,0.4,0.1,0.7,0.1,1.1c0,0.4,0,0.8,0.1,1.1c0.3,1.4,1,2.6,1.9,3.5c1.3,1.3,2.9,1.9,4.9,1.8c-0.1,0.2-0.2,0.3-0.2,0.4
		c0,0,0,0.1,0,0.1c0,0,0,0-0.1,0c-0.1,0-0.1,0,0,0.1c0.1,0.1,0.1,0.3,0,0.5c0,0.1-0.1,0.1-0.1,0.2c0,0.1,0,0.2-0.1,0.2
		c0,0,0,0,0,0.1c0,0,0,0,0,0.1c0,0,0,0,0,0c0,0,0,0,0,0c0,0-0.1,0-0.1,0.1c0,0.3,0.1,0.5,0.2,0.8c0,0.1,0,0.3,0,0.4
		c0,0.1,0,0.3,0,0.4c0,0.4,0,0.9-0.1,1.5c0,0,0,0.1-0.1,0.1c-0.1,0.1-0.1,0.1,0,0.2c0,0,0,0.1,0,0.1c0,0,0,0,0,0
		c-0.1,0.1-0.1,0.1-0.1,0.2c0,0,0,0.1,0,0.1c0,0,0,0.1,0,0.1c0,0.5,0,1,0.1,1.4c0,0.1,0,0.1,0,0.1c0,0.1,0,0.1,0,0.1
		c0.1,0,0.1,0.1,0.1,0.1c0,0.1,0,0.2,0.1,0.3c0,0,0,0.1,0,0.1c0,0.1,0,0.3,0,0.5c0,0,0,0.1,0,0.1l0,0c-2.9,0-5.8-0.2-8.7-0.6
		c-2-0.3-4-0.7-5.9-1.2c0-0.2,0-0.4,0-0.5c0,0,0-0.1,0-0.1c0-0.1-0.1-0.3-0.1-0.4c-0.1-0.1-0.1-0.3-0.1-0.4c0-0.4-0.1-0.8-0.3-1.2
		c0,0-0.1-0.1-0.1,0l-0.2,0.1c0,0-0.1,0-0.1,0c-0.1-0.5-0.2-1-0.2-1.6c0-0.5-0.1-1-0.2-1.6c0-0.2-0.1-0.4-0.1-0.5
		c0-0.2-0.1-0.4-0.1-0.5c0-0.1,0-0.1,0-0.1l0.1-0.1c0,0,0-0.1,0-0.1c-0.1,0-0.2-0.1-0.2-0.1c1.3,0.5,2.7,0.7,4,0.8
		c0.6,0,1-0.1,1.3-0.2c0.3-0.1,0.5-0.3,0.6-0.5c0.5-0.8,0.6-1.7,0.2-2.6c0.1-0.5,0.1-0.8,0.1-1c0-2.8,0-5.6,0-8.5c0-0.2,0-0.4,0-0.6
		c0.2-0.1,0.3-0.3,0.5-0.7c0.3-0.7,1-1.7,1.9-3.2c0.8-1.2,1.5-2.3,2.1-3.2c0.4-0.6,0.8-1.2,1.2-1.8C43.1,56.9,44.1,55.4,45.1,53.8z"
		/>
	<path class="st7" d="M81,59.4l0.8,0.1c-0.2,2.5-0.6,5.1-1.1,7.9c-1,4.9-3.2,9.4-6.5,13.1c0-0.1,0-0.2,0.1-0.3c0,0,0-0.1,0-0.1
		c0,0,0-0.1,0-0.1c0.1-0.3,0.2-0.5,0.2-0.8c0,0,0-0.1,0-0.1c-0.1-0.1-0.1-0.2,0-0.4c0.1-0.2,0.1-0.4,0-0.6c0,0,0-0.1,0-0.1
		c0-0.1,0-0.2,0-0.2c0-0.1,0-0.1,0-0.2c0-0.1,0.1-0.3,0.1-0.4c0-0.1,0.1-0.3,0.1-0.5c0-0.3,0.1-0.6,0.1-0.9c0-0.1,0-0.2,0-0.3
		c0-0.1,0-0.2,0-0.3c0.1-0.4,0.1-0.8,0-1.1c0-0.1,0-0.2,0-0.4c0,0,0-0.1,0-0.1c0,0-0.1,0-0.1,0c-0.1,0-0.1-0.1,0-0.1
		c0.2-0.2,0.3-0.5,0.4-0.9c0.1-0.5,0.1-0.9,0.1-1.1c-0.1-0.6-0.1-1.2,0-1.8c0-0.2,0-0.4,0.2-0.5c0.5-0.3,1.1-0.7,1.7-1
		c0.3-0.2,0.6-0.4,0.7-0.8c0-0.2,0-0.4-0.1-0.5c-0.1-0.1-0.2-0.2-0.5-0.3c-0.3-0.1-0.5-0.3-0.7-0.5c0.6-0.7,1.2-1.4,0.8-2.4
		c-0.3-0.7-1.1-1-1.8-1.2c-0.1-0.2-0.1-0.4-0.2-0.6c0-0.2,0.1-0.4-0.1-0.5c-0.1-0.1-0.2-0.2-0.3-0.2c0,0,0-0.1,0-0.1c0,0,0,0,0,0
		c0,0,0,0,0,0c-0.1-0.1-0.3-0.1-0.4-0.1c-0.3,0-0.6-0.1-0.8-0.3c-0.1-0.1-0.3-0.2-0.3-0.3c-0.3-0.5-0.6-0.9-0.9-1.4
		c-0.1-0.2-0.1-0.4-0.1-0.6c0-0.2,0.1-0.3,0.2-0.4c0.3-0.2,0.7-0.2,1.1-0.3c1.2,0.3,2.2,0,3.3-0.6c0.6-0.3,1.1-0.3,1.6,0.2
		c0.3,0.3,0.6,0.6,0.9,1C79.6,58.8,80.2,59.2,81,59.4z"/>
	<path class="st8" d="M75.3,62.3c0.7,0.2,1.4,0.5,1.8,1.2c0.5,1-0.2,1.7-0.8,2.4c-0.3,0.2-0.6,0.5-0.9,0.8c-1.2,1.1-0.3,2.5-1,3.8
		c-0.5,0.9-1.6,1-2.4,0.6c-0.7-0.4-1.3-0.6-2.2-0.6c-0.5,0-1.2,0.3-1.8,0.5c-0.3,0.1-0.8,0.2-1.1,0.1c-0.7-0.1-1.1-0.6-1.2-1.4
		c-0.1-0.6-0.1-1.3-0.1-1.9c0-0.5-0.2-1.1-0.6-1.4c-0.6-0.5-1.1-0.8-1.5-1.5c-0.2-0.5-0.2-0.9-0.1-1.3c0.8-1.7,2.6-1.1,3.9-1.9
		c0.6-0.4,0.9-1,1.2-1.7c0.3-0.7,1.1-1.6,2-1.4c1.3,0.3,1.6,1.2,2,2.3C72.8,61.8,74.5,62.2,75.3,62.3z"/>
	<path class="st2" d="M59,63.2c0,0.2-0.1,0.3-0.2,0.4c0,0,0,0.1,0,0.1c0,0,0,0,0,0c0,0,0,0,0,0c-0.1,0.1-0.2,0.3-0.3,0.5
		c0,0,0,0.1,0,0.1c0.1,0.1,0.1,0.2,0.1,0.3c0,0.1,0,0.1,0.1,0.2c0.2,0.2,0.2,0.5,0.2,0.8c0,0.4-0.1,0.9,0,1.3c0,0,0,0.1,0.1,0.1
		c0,0,0,0,0,0.1c0,0,0,0,0,0.1c-0.1,0.2-0.1,0.4,0,0.6c0,0.2,0,0.3,0,0.5c0,0.3-0.1,0.7-0.1,1c0,0,0,0,0,0c0,0,0,0,0,0c0,0,0,0,0,0
		c0,0,0,0,0,0c0,0,0,0,0,0c0,0.2,0,0.5,0,0.8c0,0,0,0,0,0.1c0,0,0,0,0,0c0,0,0-0.1,0-0.1c0,0,0-0.1,0-0.1c0.1-0.1,0.1,0,0.1,0l0,0.2
		c0,0,0,0.1-0.1,0.1c0,0,0,0,0,0c-0.1,0-0.1,0-0.1,0.1c0,0.1,0,0.1,0,0.2c0,0.1,0,0.1,0.1,0.1c0,0,0,0,0,0c0,0,0.1,0,0.1,0.1
		c0,0,0,0,0,0c0,0.1,0,0.1-0.1,0.2c-0.1,0.1-0.1,0.2,0,0.3c0.1,0.1,0.1,0.2,0.1,0.3c0,0.4,0,0.8,0,1.1c0,0,0,0.1,0,0.1
		c0,0.1,0,0.2,0,0.3c0,0.2,0,0.4,0,0.7c0,0.2,0,0.3,0,0.5c0,0.2,0,0.5,0,0.7c-0.1,0.3-0.1,0.7,0,1c0,0.3,0,0.5,0,0.7
		c0,0,0,0.1,0,0.1c0,0,0,0,0,0.1c0,0,0,0,0,0.1c0,0,0,0,0,0c0,0.1-0.1,0.1,0,0.2c0,0,0,0.1,0,0.1c-0.1,0.1-0.1,0.3-0.1,0.4
		c0,0.1,0,0.2,0.1,0.2c0.1,0.5,0.1,0.9,0.2,1.4c0,0.5,0.1,0.9,0.2,1.4c0,0.1,0,0.3,0,0.4c0,0.1,0,0.2,0.1,0.3c0,0.1,0.1,0.1,0.1,0.2
		c0,0.2,0,0.3,0,0.4c0,0.1,0,0.1,0.1,0.1c0,0,0,0,0,0c0,0,0.1,0,0.1,0.1c0,0.4-0.1,0.8,0,1.2c0,0.2,0.1,0.3,0.1,0.5c0,0,0,0.1,0,0.1
		c0,0.1,0,0.2,0,0.3c0,0,0,0.1,0,0.1c0,0.3,0,0.5,0.1,0.7c0,0,0,0.1,0,0.1c0,0.2,0,0.3,0,0.5c0,0,0,0.1,0,0.1
		c-0.1,0.2-0.1,0.3,0,0.5c0,0.1,0,0.3,0,0.5c0,0.5-0.1,1-0.2,1.5c-4.5,0.8-9,1.2-13.6,1.1l0,0c0,0,0,0,0-0.1c-0.1-0.2-0.1-0.3,0-0.5
		c0,0,0-0.1,0-0.1c0-0.1-0.1-0.2-0.1-0.3c0-0.1,0-0.1-0.1-0.1c-0.1,0-0.1-0.1,0-0.1c0,0,0-0.1,0-0.1c-0.1-0.5-0.2-1-0.1-1.4
		c0,0,0-0.1,0-0.1c0,0,0,0,0-0.1c-0.1-0.1,0-0.2,0.1-0.2c0,0,0.1-0.1,0-0.1c0,0,0,0,0,0c0-0.1,0-0.1,0-0.2c0,0,0-0.1,0.1-0.1
		c0.1-0.5,0.1-1,0.1-1.5c0-0.1,0-0.3,0-0.4c0-0.1,0-0.3,0-0.4c-0.1-0.3-0.1-0.5-0.2-0.8c0,0,0-0.1,0.1-0.1c0,0,0,0,0,0c0,0,0,0,0,0
		c0,0,0,0,0-0.1c0,0,0,0,0-0.1c0.1,0,0.1-0.1,0.1-0.2c0-0.1,0-0.1,0.1-0.2c0.1-0.2,0.2-0.3,0-0.5c-0.1-0.1,0-0.1,0-0.1
		c0,0,0.1,0,0.1,0c0,0,0-0.1,0-0.1c0-0.1,0.1-0.2,0.2-0.4c0.9-0.1,1.8-0.3,2.7-0.8c0.4-0.2,0.9-0.6,1.3-1c0.4-0.3,0.7-0.7,0.9-0.9
		c0.7-0.9,1.2-2,1.3-3.2c0.1-0.5,0-0.9,0-1.3c0-0.1-0.1-0.2-0.2-0.2c0.3-1.2,0.2-2.3-0.2-3.4c-0.9-2.6-2.8-4.1-5.7-4.5l-0.7,0
		c0,0-0.1,0-0.1-0.1c0,0,0,0,0,0c0.1,0,0.1-0.1,0-0.1c-0.1-0.1-0.1-0.1-0.2-0.2l11.8,0c0.2,0,0.3-0.1,0.4-0.2L59,63.2z"/>
	<path class="st4" d="M63.6,65c0.4,0.6,0.8,1,1.5,1.5c0.4,0.3,0.6,0.9,0.6,1.4c0,0.6,0.1,1.3,0.1,1.9c0.1,0.8,0.5,1.2,1.2,1.4
		c0.3,0.1,0.8,0,1.1-0.1c0.6-0.2,1.2-0.4,1.8-0.5c0.8-0.1,1.5,0.2,2.2,0.6c0.8,0.5,1.9,0.3,2.4-0.6c0.7-1.3-0.2-2.7,1-3.8
		c0.3-0.3,0.6-0.5,0.9-0.8c0.2,0.2,0.5,0.3,0.7,0.5c0.2,0.1,0.4,0.2,0.5,0.3c0.1,0.1,0.2,0.3,0.1,0.5c-0.1,0.3-0.4,0.6-0.7,0.8
		c-0.6,0.4-1.2,0.7-1.7,1C75,69.2,75,69.3,75,69.5c-0.1,0.6-0.1,1.2,0,1.8c0,0.2,0,0.6-0.1,1.1c-0.1,0.4-0.2,0.7-0.4,0.9
		c0,0,0,0.1,0,0.1c0,0,0.1,0,0.1,0c0,0,0.1,0.1,0,0.1c0,0.1,0,0.2,0,0.4c0.1,0.4,0.1,0.8,0,1.1c0,0.1,0,0.2,0,0.3c0,0.1,0,0.2,0,0.3
		c-0.1,0.3-0.1,0.6-0.1,0.9c0,0.2,0,0.4-0.1,0.5c0,0.1-0.1,0.3-0.1,0.4c0,0.1,0,0.1,0,0.2c0,0.1,0,0.1,0,0.2c0,0,0,0.1,0,0.1
		c0.1,0.2,0.1,0.4,0,0.6c-0.1,0.1,0,0.3,0,0.4c0,0,0,0.1,0,0.1c0,0.3-0.1,0.5-0.2,0.8c0,0,0,0.1,0,0.1c0,0,0,0.1,0,0.1
		c-0.1,0.1-0.1,0.2-0.1,0.3c-1.8,1.9-3.8,3.5-6.1,4.8c-0.1,0-0.1-0.2-0.1-0.4c0,0,0,0,0-0.1c0,0,0-0.1,0-0.1c0,0,0-0.1,0-0.1
		c0-0.2,0.1-0.5,0.1-0.7c0.1-0.8,0.2-1.5,0.2-2.2c0-0.1,0-0.1,0-0.2c0-0.1,0-0.2,0-0.3c0,0,0-0.1,0-0.1c0,0,0-0.1,0-0.1
		c0,0,0-0.1,0.1-0.1c0-0.2,0-0.3,0-0.5c0-0.6,0-1.2,0-1.7c0-0.1,0-0.2-0.1-0.3c-0.1-0.1-0.1-0.2-0.1-0.3c0-0.2,0-0.4,0-0.6
		c0-0.2,0-0.4,0-0.6c0-0.3,0-0.6,0-0.9c0-0.4,0-0.8,0-1.2c0-0.2,0-0.3,0-0.5c-0.1-0.3-0.2-0.5-0.3-0.8c0,0,0-0.1,0-0.1c0,0,0,0,0,0
		c0-0.1,0-0.2-0.1-0.2c0,0,0,0-0.1,0c-0.1,0-0.3,0.1-0.4,0.1c-0.1,0-0.2-0.1-0.3,0c0,0-0.1,0-0.1,0c-0.5-0.1-0.9-0.3-1-0.9
		c-0.2-0.5-0.2-1.1-0.2-1.7c0-0.2-0.1-0.5-0.1-0.7c0-0.1,0-0.2-0.1-0.4c0,0,0-0.1,0-0.1c0-0.1,0-0.3,0-0.4c-0.1-0.2-0.2-0.3-0.3-0.4
		c-0.2-0.1-0.5-0.3-0.7-0.4c-0.6-0.4-0.9-0.8-1-1.4C63.3,66.3,63.4,65.7,63.6,65z"/>
	<path class="st8" d="M46.7,65.5c2.8,0.4,4.7,1.9,5.7,4.5c0.4,1.1,0.5,2.2,0.2,3.4c-0.6,2.6-2.3,4.5-5,5.1c-3.8,0.9-7-1.5-7.8-5.2
		c-0.3-1.6-0.1-3.1,0.7-4.4C41.8,66.5,43.9,65.4,46.7,65.5z"/>
	<path class="st9" d="M23,69.8c0.5,2.9,2.2,5.7,4.9,7.2c2.2,1.2,4.6,1.7,7.1,1.5c0.5,0,1-0.4,1.3-1c0.4,0.9,0.3,1.8-0.2,2.6
		c-0.1,0.2-0.3,0.4-0.6,0.5c-0.3,0.2-0.8,0.2-1.3,0.2c-1.4,0-2.7-0.3-4-0.8c-0.5-0.2-0.9-0.4-1.4-0.6c-1.9-1-3.3-2.4-4.3-4.3
		c-0.2-0.3-0.4-0.8-0.7-1.5c-0.1-0.2-0.1-0.3-0.2-0.5c-0.1-0.3-0.2-0.5-0.2-0.8c0-0.2-0.1-0.3-0.1-0.4c-0.1-0.7-0.2-1.4-0.3-2.1
		C22.8,69.8,22.9,69.7,23,69.8C22.9,69.7,22.9,69.7,23,69.8z"/>
	<path class="st10" d="M39.9,73.3c0.8,3.7,4,6.1,7.8,5.2c2.6-0.6,4.3-2.5,5-5.1c0.1,0,0.2,0,0.2,0.2c0.1,0.3,0.1,0.8,0,1.3
		c-0.1,1.2-0.6,2.3-1.3,3.2c-0.2,0.3-0.5,0.6-0.9,0.9c-0.4,0.4-0.9,0.7-1.3,1c-0.9,0.5-1.8,0.8-2.7,0.8c-2,0.1-3.6-0.5-4.9-1.8
		c-0.9-0.9-1.6-2.1-1.9-3.5c-0.1-0.3-0.1-0.7-0.1-1.1c0-0.4,0-0.8-0.1-1.1C39.7,73.2,39.8,73.2,39.9,73.3
		C39.8,73.2,39.8,73.2,39.9,73.3C39.8,73.2,39.9,73.2,39.9,73.3z"/>
</g>
</svg>
