<?xml version="1.0" encoding="utf-8"?>
<!-- Generator: Adobe Illustrator 26.1.0, SVG Export Plug-In . SVG Version: 6.00 Build 0)  -->
<svg version="1.1" id="Capa_1" xmlns="http://www.w3.org/2000/svg" xmlns:xlink="http://www.w3.org/1999/xlink" x="0px" y="0px"
	 viewBox="0 0 1280 1280" style="enable-background:new 0 0 1280 1280;" xml:space="preserve">
<style type="text/css">
	.st0{fill:none;}
	.st1{fill:#5A6E7F;}
	.st2{fill:#FFFFFF;}
	.st3{fill:#97D5C9;}
</style>
<g>
	<path class="st0" d="M925.8,422.9c-125.8-9.3-471.1-90.2-471.1-90.2c-20.9,37.2-75.6,84.4-118.2,114.6c-1.5,6.6-3,13.3-4.1,20
		c-2.3,14.6-3.9,29.4-3.9,44.7c0,10.8,0.7,21.5,1.9,32.1c2,18.1,5.8,35.6,11,52.5c38.1,123.8,157.2,214.5,298.2,214.5
		c140.9,0,260.1-90.7,298.1-214.5c5.2-16.9,9-34.4,11.1-52.5c1.1-10.6,1.8-21.3,1.8-32.1c0-15.2-1.6-30-3.9-44.6
		c-2.4-15.1-6.1-29.8-10.7-44.1C932.8,423.3,929.4,423.2,925.8,422.9z M927.4,474.8l-28.8,103c-1.5,5.4-6.3,9-11.9,9H715.8
		c-5.9,0-11-4.1-12.1-9.9l-11.9-59.2c-2.6-3.8-7.7-7.8-15.7-10.8c-9.8-3.9-22.9-6.1-36.1-6c-13.3,0-26.7,2.2-36.7,6.1
		c-8.1,3.1-13.4,7.2-16.1,10.9l-11.8,59.1c-1.2,5.8-6.2,9.9-12.1,9.9H392.5c-5.5,0-10.4-3.6-11.9-9l-28.8-103
		c-1-3.8-0.3-7.7,2.1-10.8c2.4-3.1,6-4.9,9.9-4.9H584c3.7,0,7.2,1.6,9.6,4.5c2.3,2.9,3.3,6.6,2.6,10.2l-1.8,9.2
		c13.9-5.3,29.8-7.8,45.7-7.8c15.7,0,31.2,2.4,44.9,7.7l-1.8-9c-0.7-3.6,0.2-7.4,2.6-10.2c2.3-2.9,5.9-4.5,9.6-4.5h220.3
		c3.9,0,7.5,1.8,9.8,4.9C927.7,467.1,928.5,471.1,927.4,474.8z"/>
	<path class="st0" d="M568.9,483.9h-189l21.9,78.3h151.4l10.1-50.5l-1.4-0.5c0.6-1.4,1.5-2.5,2.2-3.8L568.9,483.9z"/>
	<path class="st0" d="M278.2,456.6c-17.3,2.8-30.6,17-30.6,34.4v27.6c0,17.7,13.7,32.3,31.4,34.7c-1.7-13.5-2.8-27.3-2.8-41.3
		c0-12,1-23.8,2.5-35.4C278.5,469.9,278.3,463.3,278.2,456.6z"/>
	<path class="st0" d="M725.9,562.1h151.4l21.9-78.3h-189l4.7,23.3c0.7,1.3,1.7,2.5,2.2,4l-1.4,0.5L725.9,562.1z"/>
	<path class="st0" d="M1031.7,518.6V491c0-16.2-11.6-29.5-27.1-33.6c-1.4,5-2.9,9.9-4.5,14.8c1.7,13.1,2.9,26.3,2.9,39.9
		c0,14-1.1,27.7-2.8,41.3C1018,550.9,1031.7,536.3,1031.7,518.6z"/>
	<path class="st1" d="M125.7,1128v151.4h1027.8V1128c0-172.3-142.4-312-318.1-312h-17.1c83-45.4,145.7-121.2,171.5-211.7h5.2
		c49.1,0,89-38.4,89-85.6V491c0-40.9-30.1-75-70-83.4c1.4-12.3,2.4-24.8,2.4-37.5l-0.2-3.6c0-9.1-0.3-18.5-1.5-28.5v0
		c-5.5-58.4-25.8-112.4-57.2-158.4c-16.2-23.7-35.5-45-57-63.8c-57.5-50.3-132.1-81.3-214-83.3l-4.1-3.3c-3.5-3.9-7.4-4.6-10-4.6
		c-6.2,0-10.4,4.1-13.9,7.4h-1.1C637.7,12.2,622.8,0,610,0H610c-12.2,0.9-69.1,21.2-87.3,34.8c-4.1,3-8.6,6.9-13.4,11.2
		c-139.9,41.3-242.1,170.7-242.1,324c0,2.3,0.2,4.6,0.2,7c-0.2,10.3,0.2,20.5,1.1,30.5c-41.5,7.2-73.3,41.5-73.3,83.4v27.6
		c0,47.2,39.9,85.6,89,85.6h5.2c25.8,90.5,88.5,166.3,171.5,211.7h-17.1C268.1,815.9,125.7,955.7,125.7,1128z M1004.6,457.4
		c15.5,4.1,27.1,17.4,27.1,33.6v27.6c0,17.7-13.7,32.3-31.5,34.7c1.7-13.5,2.8-27.3,2.8-41.3c0-13.5-1.2-26.8-2.9-39.9
		C1001.6,467.3,1003.2,462.4,1004.6,457.4z M247.5,518.6V491c0-17.4,13.3-31.6,30.6-34.4c0.1,6.7,0.3,13.3,0.5,20.1
		c-1.5,11.6-2.5,23.4-2.5,35.4c0,14,1.1,27.7,2.8,41.3C261.2,550.9,247.5,536.3,247.5,518.6z M639.6,993.6
		c-93.2,0-168.8-75.6-168.8-168.8c0-1.4,0.1-2.3,0.2-3.5c6.8,3.5,13.7,6.8,20.8,9.9c45.2,19.5,95.2,30.4,147.9,30.4
		c52.6,0,102.7-10.9,147.9-30.4c7-3.1,14-6.4,20.7-9.9c0.1,1.2,0.2,2.1,0.2,3.5C808.4,918.1,732.8,993.6,639.6,993.6z M341.4,596.7
		c-5.2-17-9-34.5-11-52.5c-1.2-10.6-1.9-21.3-1.9-32.1c0-15.2,1.6-30,3.9-44.7c1-6.8,2.6-13.4,4.1-20
		c42.7-30.3,97.3-77.5,118.2-114.6c0,0,345.3,80.9,471.1,90.2c3.6,0.2,7,0.4,10.3,0.4c4.6,14.3,8.3,29,10.7,44.1
		c2.3,14.6,3.9,29.4,3.9,44.6c0,10.8-0.7,21.5-1.8,32.1c-2.1,18.1-5.8,35.6-11.1,52.5c-38.1,123.8-157.2,214.5-298.1,214.5
		C498.6,811.2,379.5,720.5,341.4,596.7z"/>
	<path class="st2" d="M491.7,831.2c1.7,38.4,17.6,73,43.1,98.5c26.9,26.9,63.8,43.4,104.8,43.4c41,0,78-16.6,104.8-43.4
		c25.4-25.4,41.4-60.1,43.1-98.5c-45.2,19.5-95.2,30.4-147.9,30.4C586.9,861.5,536.9,850.6,491.7,831.2z"/>
	<path class="st3" d="M744.4,929.6c-26.9,26.9-63.9,43.4-104.8,43.4c-41,0-78-16.6-104.8-43.4c-25.4-25.4-41.4-60.1-43.1-98.5
		c-7.1-3.1-13.9-6.4-20.8-9.9c-0.1,1.2-0.2,2.2-0.2,3.5c0,93.2,75.6,168.8,168.8,168.8s168.8-75.6,168.8-168.8
		c0-1.4-0.1-2.3-0.2-3.5c-6.8,3.4-13.7,6.8-20.7,9.9C785.8,869.6,769.9,904.2,744.4,929.6z"/>
	<path class="st3" d="M593.6,463.7c-2.4-2.9-5.9-4.5-9.6-4.5H363.7c-3.9,0-7.5,1.8-9.9,4.9c-2.3,3.1-3.1,7.1-2.1,10.8l28.8,103
		c1.5,5.4,6.4,9,11.9,9h170.9c5.9,0,10.9-4.1,12.1-9.9l11.8-59.1c2.7-3.7,7.9-7.8,16.1-10.9c10-3.9,23.4-6.2,36.7-6.1
		c13.2,0,26.3,2.2,36.1,6c7.9,3.1,13.1,7.1,15.7,10.8l11.9,59.2c1.1,5.8,6.2,9.9,12.1,9.9h170.9c5.6,0,10.4-3.6,11.9-9l28.8-103
		c1-3.8,0.3-7.7-2.1-10.8c-2.3-3.1-6-4.9-9.8-4.9H695.2c-3.7,0-7.2,1.6-9.6,4.5c-2.3,2.9-3.3,6.6-2.6,10.2l1.8,9
		c-13.6-5.2-29.2-7.6-44.9-7.7c-15.9,0-31.9,2.5-45.7,7.8l1.8-9.2C596.8,470.3,595.9,466.6,593.6,463.7z M564.2,507.3
		c-0.7,1.3-1.6,2.4-2.2,3.8l1.4,0.5l-10.1,50.5H401.8l-21.9-78.3h189L564.2,507.3z M899.2,483.9l-21.9,78.3H725.9l-10.1-50.5
		l1.4-0.5c-0.6-1.5-1.5-2.6-2.2-4l-4.7-23.3H899.2z"/>
</g>
</svg>
